<svg width="23" height="23" viewBox="0 0 23 23" fill="none" xmlns="http://www.w3.org/2000/svg">
<path d="M22.2573 1.35053V21.0151C22.2538 21.0575 22.2341 21.0968 22.2023 21.125C22.1891 21.3829 22.0807 21.6268 21.898 21.8094C21.7154 21.992 21.4715 22.1005 21.2136 22.1137H15.4461V13.6546H18.1376C18.3024 13.6546 18.3024 13.6546 18.3573 13.4899L18.5221 12.1166C18.577 11.5673 18.6319 11.018 18.7418 10.4688C18.8517 9.91947 18.7418 10.304 18.6319 10.304H15.4461V8.16174C15.4461 7.99695 15.501 7.77723 15.501 7.61245C15.5249 7.38753 15.6251 7.17759 15.7851 7.01765C15.945 6.85772 16.1549 6.75745 16.3799 6.73358L17.0939 6.62372H18.7418C18.8517 6.62372 18.8517 6.62372 18.8517 6.51387V3.71248C18.8517 3.65755 18.8517 3.60263 18.7418 3.60263H16.2151C15.5889 3.58544 14.9677 3.71722 14.4024 3.98713C13.9843 4.12784 13.5987 4.35106 13.2685 4.64356C12.9382 4.93606 12.6701 5.29188 12.4799 5.68993C12.1666 6.30061 12.0153 6.98148 12.0405 7.66738C11.9855 8.49131 12.0405 9.37018 12.0405 10.249H9.23908C9.12922 10.249 9.12922 10.304 9.12922 10.3589V13.4899C9.12922 13.5997 9.12922 13.5997 9.23908 13.5997H12.0405V22.0588C12.0087 22.087 11.989 22.1263 11.9855 22.1686H1.3293C1.07136 22.1554 0.827505 22.047 0.644877 21.8643C0.46225 21.6817 0.353827 21.4379 0.340574 21.1799C0.285644 21.1799 0.285645 21.125 0.285645 21.0701V1.35053C0.285645 1.29561 0.285644 1.24068 0.340574 1.24068C0.353827 0.982742 0.46225 0.738884 0.644877 0.556257C0.827505 0.373629 1.07136 0.265206 1.3293 0.251953H21.2136C21.4715 0.265206 21.7154 0.373629 21.898 0.556257C22.0807 0.738884 22.1891 0.982742 22.2023 1.24068L22.2573 1.35053Z" fill="white"/>
</svg>
